#N canvas 2549 -700 1440 2496 10;
#X obj 39 163 dac~ 1 2;
#X text 35 32 Hello world!;
#X text 35 42 ============;
#X obj 39 122 *~ 0.1;
#X obj 39 101 osc~ 440;
#X text 108 115 OMG SINE WAVE;
#X text 215 22 ............................;
#X text 215 32 . ____ ._____ _ .......___ .;
#X text 215 42 .| __ )| ____| |....../ _ |.;
#X text 215 62 .| |_) | |___| |___ / ___ |.;
#X text 215 72 .|____/|_____|_____/_/..._|.io;
#X text 215 82 ............................;
#X text 215 52 .| __ || __|.| |...../ _| |.;
#X obj 39 230 loadbang;
#X obj 39 285 s bela_setTrill @hv_param;
#X obj 39 346 r bela_trillCreated;
#X obj 66 397 print bela_trillCreated;
#X obj 39 371 t l l;
#X obj 39 454 bng 16 250 50 0 empty empty empty 0 -8 0 10 #fcfcfc #000000 #000000;
#X msg 39 258 new craft-01 1 CRAFT;
#X obj 39 422 route craft-01;
#X msg 39 484 mode craft-01 raw \, prescaler craft-01 2 \, threshold craft-01 0.01 \, updateBaseline craft-01;
#X obj 39 525 s bela_setTrill @hv_param;
#X text 223 363 When created \, print and bang. If initialized \, change params. <mode> => raw <prescaler> => 2 <threshold> => 0.01 <baseline> => [reset];
#X text 223 228 Initialize Trill device <sensor_id> => craft-01 <bus> => 1 <device> => CRAFT <address> => [null];
#X obj 39 583 r bela_trill;
#X obj 39 609 route craft-01;
#X obj 39 661 pack f f f f f f;
#N canvas 731 155 908 627 throttle_time 0;
#X obj 49 60 t a b;
#X obj 50 35 inlet;
#X obj 73 193 spigot;
#X obj 106 166 tgl 15 0 empty empty empty 17 7 0 10 #fcfcfc #000000 #000000 0 1;
#X obj 73 235 outlet;
#X obj 270 20 loadbang;
#X obj 156 109 timer;
#X text 96 48 Let one input through every;
#X text 304 50 ms (at least);
#X obj 227 22 bng 15 250 50 0 empty empty empty 17 7 0 10 #fcfcfc #000000 #000000;
#X obj 154 141 >;
#X obj 204 142 select 1;
#X obj 270 50 200;
#X connect 0 0 2 0;
#X connect 0 1 6 1;
#X connect 1 0 0 0;
#X connect 2 0 4 0;
#X connect 3 0 2 1;
#X connect 5 0 12 0;
#X connect 6 0 10 0;
#X connect 9 0 12 0;
#X connect 10 0 3 0;
#X connect 10 0 11 0;
#X connect 11 0 6 0;
#X connect 12 0 10 1;
#X restore 39 635 pd throttle_time;
#X obj 39 687 print craft-01;
#X text 223 626 Receive values from all Trills. Filter from craft-01. Print first 6 values.;
#X connect 3 0 0 1;
#X connect 3 0 0 0;
#X connect 4 0 3 0;
#X connect 13 0 19 0;
#X connect 15 0 17 0;
#X connect 17 0 20 0;
#X connect 17 1 16 0;
#X connect 18 0 21 0;
#X connect 19 0 14 0;
#X connect 20 0 18 0;
#X connect 21 0 22 0;
#X connect 25 0 26 0;
#X connect 26 0 28 0;
#X connect 27 0 29 0;
#X connect 28 0 27 0;
