#N canvas 2349 206 1440 2496 12;
#X obj 17 12 loadbang;
#X msg 17 34 new craft-01 1 CRAFT;
#X obj 17 56 s bela_setTrill @hv_param;
#X obj 17 83 r bela_trillCreated;
#X obj 123 110 print bela_trillCreated;
#X obj 17 110 route craft-01;
#X obj 17 154 s bela_setTrill @hv_param;
#X obj 17 181 r bela_trill;
#X obj 17 203 route craft-01;
#N canvas 2598 -662 1009 720 throttle_time 0;
#X obj 49 60 t a b;
#X obj 50 35 inlet;
#X obj 73 193 spigot;
#X obj 106 166 tgl 15 0 empty empty empty 17 7 0 10 #fcfcfc #000000 #000000 0 1;
#X obj 73 235 outlet;
#X obj 270 20 loadbang;
#X obj 156 109 timer;
#X text 96 48 Let one input through every;
#X text 304 50 ms (at least);
#X obj 227 22 bng 15 250 50 0 empty empty empty 17 7 0 10 #fcfcfc #000000 #000000;
#X obj 154 141 >;
#X obj 204 142 select 1;
#X obj 270 50 \$1;
#X connect 0 0 2 0;
#X connect 0 1 6 1;
#X connect 1 0 0 0;
#X connect 2 0 4 0;
#X connect 3 0 2 1;
#X connect 5 0 12 0;
#X connect 6 0 10 0;
#X connect 9 0 12 0;
#X connect 10 0 3 0;
#X connect 10 0 11 0;
#X connect 11 0 6 0;
#X connect 12 0 10 1;
#X restore 17 225 pd throttle_time 250;
#X obj 17 249 unpack f f f f f f f f f f f f f f f f f f f f f f f f f f f f f f, f 87;
#X msg 17 132 prescaler craft-01 5 \, threshold craft-01 0.01;
#X obj 186 447 step 4 0.1;
#X obj 209 403 step 3 0.1;
#X obj 232 359 step 1 0.1;
#X obj 255 315 step 2 0.1;
#X obj 278 271 step 5 0.1;
#X obj 255 337 s steps-status;
#X obj 278 293 s steps-status;
#X obj 232 381 s steps-status;
#X obj 209 425 s steps-status;
#X obj 186 469 s steps-status;
#X obj 163 513 s steps-status;
#X obj 139 557 s steps-status;
#X obj 561 337 s steps-status;
#X obj 538 381 s steps-status;
#X obj 514 425 s steps-status;
#X obj 514 403 step 6 0.1;
#X obj 538 359 step 7 0.1;
#X obj 561 315 step 8 0.1;
#X obj 38 300 s steps-status;
#X obj 17 346 s steps-status;
#X obj 163 491 step 12 0.1;
#X obj 139 535 step 13 0.1;
#X obj 20 618 loadbang;
#X obj 20 690 tgl 19 0 empty empty empty 0 -10 0 12 #fcfcfc #000000 #000000 0 1;
#X obj 20 714 metro 5;
#X obj 20 738 bng 19 250 50 0 empty empty empty 0 -10 0 12 #fcfcfc #000000 #000000;
#X obj 20 762 f;
#X obj 52 762 + 1;
#X obj 20 834 sel 1;
#X obj 20 786 t f f, f 13;
#X msg 20 858 0;
#X obj 108 810 t f f f, f 45;
#X obj 270 957 pack s f f, f 22;
#X obj 346 885 mod 6;
#X obj 420 933 f;
#X obj 420 839 / 6;
#X obj 420 862 int;
#X obj 420 909 + 5;
#X obj 108 1005 soundfiler;
#X obj 108 957 pack s s;
#X msg 108 981 read -resize \$1 \$2;
#X obj 108 839 t f f, f 12;
#X obj 346 861 t f b, f 6;
#X obj 238 911 t s s;
#X obj 420 885 * 25;
#X obj 346 933 + 5;
#X obj 346 909 * 125;
#X obj 20 666 t b b, f 16;
#X obj 20 642 del 1000;
#X obj 20 882 t f f f, f 10;
#N canvas 304 304 1293 810 metro-tables 0;
#X obj 5 5 table metro-0;
#X obj 130 5 table metro-1;
#X obj 255 5 table metro-2;
#X obj 380 5 table metro-3;
#X obj 505 5 table metro-4;
#X obj 630 5 table metro-5;
#X obj 5 30 table metro-6;
#X obj 130 30 table metro-7;
#X obj 255 30 table metro-8;
#X obj 380 30 table metro-9;
#X obj 505 30 table metro-10;
#X obj 630 30 table metro-11;
#X obj 5 55 table metro-12;
#X obj 130 55 table metro-13;
#X obj 255 55 table metro-14;
#X obj 380 55 table metro-15;
#X restore 408 618 pd metro-tables;
#X msg 129 690 \; pd-metro-tables clear;
#X obj 238 873 makefilename metro-%d, f 12;
#X msg 270 981 \; pd-metro-tables obj \$2 \$3 table \$1;
#X obj 108 873 makefilename ./samples/metro-%d.wav, f 16;
#X obj 20 1040 loadbang;
#X obj 20 1112 tgl 19 0 empty empty empty 0 -10 0 12 #fcfcfc #000000 #000000 0 1;
#X obj 20 1136 metro 5;
#X obj 20 1160 bng 19 250 50 0 empty empty empty 0 -10 0 12 #fcfcfc #000000 #000000;
#X obj 20 1184 f;
#X obj 52 1184 + 1;
#X obj 20 1256 sel 1;
#X obj 20 1208 t f f, f 14;
#X msg 20 1280 0;
#X obj 115 1232 t f f f, f 44;
#X obj 277 1378 pack s f f, f 21;
#X obj 349 1284 mod 6;
#X obj 420 1354 f;
#X obj 420 1260 / 6;
#X obj 420 1283 int;
#X obj 420 1330 + 5;
#X obj 115 1426 soundfiler;
#X obj 115 1378 pack s s;
#X msg 115 1402 read -resize \$1 \$2;
#X obj 115 1260 t f f, f 12;
#X obj 349 1260 t f b, f 6;
#X obj 245 1332 t s s;
#X obj 420 1306 * 25;
#X obj 349 1332 + 5;
#X obj 349 1308 * 125;
#X obj 20 1088 t b b, f 15;
#X obj 20 1304 t f f f, f 8;
#N canvas 304 304 1293 810 cane-tables 0;
#X obj 5 5 table cane-0;
#X obj 130 5 table cane-1;
#X obj 255 5 table cane-2;
#X obj 380 5 table cane-3;
#X obj 505 5 table cane-4;
#X obj 630 5 table cane-5;
#X obj 5 30 table cane-6;
#X obj 130 30 table cane-7;
#X obj 255 30 table cane-8;
#X obj 380 30 table cane-9;
#X obj 505 30 table cane-10;
#X restore 408 1055 pd cane-tables;
#X msg 122 1112 \; pd-cane-tables clear;
#X obj 245 1294 makefilename cane-%d, f 12;
#X msg 277 1402 \; pd-cane-tables obj \$2 \$3 table \$1;
#X obj 20 1232 == 10;
#X obj 115 1294 makefilename ./samples/cane-%d.wav, f 16;
#X obj 17 1504 loadbang;
#X obj 17 1583 tgl 19 0 empty empty empty 0 -10 0 12 #fcfcfc #000000 #000000 0 1;
#X obj 17 1614 metro 5;
#X obj 17 1638 bng 19 250 50 0 empty empty empty 0 -10 0 12 #fcfcfc #000000 #000000;
#X obj 17 1662 f;
#X obj 49 1662 + 1;
#X obj 17 1734 sel 1;
#X obj 17 1686 t f f, f 8;
#X msg 17 1758 0;
#X obj 102 1718 t f f f, f 11;
#X obj 264 1887 pack s f f, f 21;
#X obj 336 1793 mod 6;
#X obj 408 1863 f;
#X obj 408 1769 / 6;
#X obj 408 1792 int;
#X obj 408 1839 + 5;
#X obj 102 1935 soundfiler;
#X obj 102 1887 pack s s;
#X msg 102 1911 read -resize \$1 \$2;
#X obj 102 1779 t f f, f 12;
#X obj 336 1769 t f b, f 6;
#X obj 232 1841 t s s;
#X obj 408 1815 * 25;
#X obj 336 1841 + 5;
#X obj 336 1817 * 125;
#X obj 17 1552 t b b, f 10;
#X obj 17 1782 t f f f, f 8;
#N canvas 304 304 1293 810 card-tables 0;
#X obj 5 5 table card-0;
#X obj 130 5 table card-1;
#X restore 373 1504 pd card-tables;
#X msg 84 1576 \; pd-card-tables clear;
#X msg 264 1911 \; pd-card-tables obj \$2 \$3 table \$1;
#X obj 232 1803 makefilename card-%d, f 12;
#X obj 17 1710 == 1;
#X obj 102 1803 makefilename ./samples/card-%d.wav, f 16;
#X obj 19 2024 loadbang;
#X obj 19 2103 tgl 19 0 empty empty empty 0 -10 0 12 #fcfcfc #000000 #000000 0 1;
#X obj 19 2134 metro 5;
#X obj 19 2158 bng 19 250 50 0 empty empty empty 0 -10 0 12 #fcfcfc #000000 #000000;
#X obj 19 2182 f;
#X obj 51 2182 + 1;
#X obj 19 2254 sel 1;
#X obj 19 2206 t f f, f 8;
#X msg 19 2278 0;
#X obj 100 2243 t f f f, f 11;
#X obj 262 2412 pack s f f, f 21;
#X obj 334 2318 mod 6;
#X obj 406 2388 f;
#X obj 406 2294 / 6;
#X obj 406 2317 int;
#X obj 406 2364 + 5;
#X obj 100 2460 soundfiler;
#X obj 100 2412 pack s s;
#X msg 100 2436 read -resize \$1 \$2;
#X obj 100 2304 t f f, f 12;
#X obj 334 2294 t f b, f 6;
#X obj 230 2366 t s s;
#X obj 406 2340 * 25;
#X obj 334 2366 + 5;
#X obj 334 2342 * 125;
#X obj 19 2072 t b b, f 10;
#X obj 19 2302 t f f f, f 8;
#N canvas 304 304 1293 810 out-tables 0;
#X obj 5 5 table out-0;
#X restore 375 2024 pd out-tables;
#X obj 100 2328 makefilename ./samples/out-%d.wav, f 16;
#X obj 230 2328 makefilename out-%d, f 12;
#X msg 262 2436 \; pd-out-tables obj \$2 \$3 table \$1;
#X msg 86 2096 \; pd-out-tables clear;
#X obj 19 2230 == 0;
#X obj 25 2838 unpack f f;
#X obj 25 2860 swap, f 10;
#X obj 25 2559 r steps-status;
#X obj 25 2882 pack f f, f 10;
#X obj 304 2926 route 0 1;
#X obj 357 2970 f;
#X obj 384 2970 + 1;
#X obj 330 2948 t f b;
#X obj 330 2970 ==;
#X obj 330 2992 t f f;
#X obj 357 3014 sel 0;
#X obj 372 2926 loadbang;
#X msg 372 2948 1;
#X msg 357 3036 1;
#X obj 25 2904 t l l, f 47;
#X obj 196 2948 unpack;
#X obj 25 2767 spigot;
#X obj 58 2680 route 1;
#X obj 58 2702 sel 1;
#X obj 58 2746 tgl 16 0 empty empty empty 0 -8 0 10 #fcfcfc #000000 #000000 0 1;
#X obj 109 2680 loadbang;
#X msg 109 2702 0;
#X obj 25 2659 t l l, f 6;
#X obj 229 2970 - 1;
#X obj 55 3239 sel 0 1 2, f 11;
#X msg 55 3271 0;
#X msg 97 3271 1;
#X obj 549 2589 table track 13, f 16;
#X obj 196 2993 tabwrite track;
#X obj 55 3298 s on-track;
#X obj 25 2993 tgl 16 0 empty empty empty 0 -8 0 10 #fcfcfc #000000 #000000 0 1;
#X obj 53 3036 + 1;
#X obj 25 3036 f;
#X obj 124 3080 sel 12;
#X msg 152 3124 0;
#X obj 25 3058 t f f, f 17;
#X obj 124 3102 t b b b, f 10;
#X obj 124 3124 tgl 16 0 empty empty empty 0 -8 0 10 #fcfcfc #000000 #000000 0 1;
#X obj 25 3102 t b f, f 8;
#X obj 55 3124 + 0;
#X obj 25 3124 f;
#X obj 25 3080 tabread track;
#X obj 55 3146 spigot, f 12;
#X obj 55 3168 t f b b, f 12;
#X obj 89 3195 t b;
#X msg 89 3217 0;
#X obj 25 2926 t b b l, f 29;
#X obj 347 2661 r on-track, f 11;
#X obj 347 2704 s walking;
#X obj 330 3061 s on-route;
#X obj 166 2636 r on-track;
#X obj 166 2658 sel 0;
#X obj 347 2683 change;
#X obj 166 2680 t b b;
#X obj 196 3146 array set track;
#X msg 196 3124 0 0 0 0 0 0 0 0 0 0 0 0 0;
#X obj 196 3102 r clear-track;
#X obj 166 2712 s clear-track;
#X obj 133 2746 s entrace-sound;
#X obj 58 2724 t b b, f 13;
#X obj 466 3028 r on-route;
#X obj 466 3050 sel 0;
#X msg 266 2822 0;
#X msg 466 3072 0;
#X obj 466 3094 s walking;
#X msg 354 3258 0;
#X obj 435 3306 s on-track, f 11;
#X obj 354 3306 s on-route;
#X obj 354 3189 bng 16 250 50 0 empty empty empty 0 -8 0 10 #fcfcfc #000000 #000000;
#X obj 397 2826 route 11;
#X obj 397 2848 sel 1;
#X msg 573 3322 set \$1;
#X obj 573 3344 tabplay~;
#X obj 498 3231 t b b, f 7;
#X obj 573 3368 *~ 1;
#X obj 573 3279 random 1;
#X obj 573 3300 makefilename out-%d;
#X obj 334 515 r steps-status, f 18;
#X obj 468 515 r on-route, f 11;
#X obj 554 515 r on-track, f 11;
#X obj 468 537 print route;
#X obj 554 537 print track;
#X obj 334 537 print current-step;
#X msg 48 3755 set \$1;
#X obj 48 3733 makefilename metro-%d;
#X obj 48 3777 tabplay~;
#X obj 21 3561 tgl 16 0 empty empty empty 0 -8 0 10 #fcfcfc #000000 #000000 0 1;
#X obj 21 3604 f;
#X obj 48 3604 + 1;
#X obj 21 3495 loadbang;
#X obj 21 3670 bng 16 250 50 0 empty empty empty 0 -8 0 10 #fcfcfc #000000 #000000;
#X obj 191 3670 bng 16 250 50 0 empty empty empty 0 -8 0 10 #fcfcfc #000000 #000000;
#X obj 21 3626 % 4;
#X obj 21 3648 sel 0 1 2 3, f 98;
#X obj 361 3670 bng 16 250 50 0 empty empty empty 0 -8 0 10 #fcfcfc #000000 #000000;
#X obj 531 3670 bng 16 250 50 0 empty empty empty 0 -8 0 10 #fcfcfc #000000 #000000;
#X msg 48 3561 0;
#X obj 21 3582 metro 8000;
#X obj 48 3712 random 65;
#X obj 21 3691 t b b;
#X msg 218 3755 set \$1;
#X obj 218 3733 makefilename metro-%d;
#X obj 218 3777 tabplay~;
#X obj 218 3712 random 65;
#X obj 191 3691 t b b;
#X msg 388 3755 set \$1;
#X obj 388 3733 makefilename metro-%d;
#X obj 388 3777 tabplay~;
#X obj 388 3712 random 65;
#X obj 361 3691 t b b;
#X msg 558 3755 set \$1;
#X obj 558 3733 makefilename metro-%d;
#X obj 558 3777 tabplay~;
#X obj 558 3712 random 65;
#X obj 531 3691 t b b;
#X obj 558 3981 dac~ 1 2;
#X obj 99 3826 *~ 0;
#X obj 218 3826 *~ 0.75;
#X obj 269 3826 *~ 0.25;
#X obj 388 3826 *~ 0.25;
#X obj 439 3826 *~ 0.75;
#X obj 558 3826 *~ 0;
#X obj 636 3826 *~ 1;
#X obj 48 3826 *~ 1;
#X obj 672 3869 line;
#X obj 672 3805 tgl 16 0 empty empty empty 0 -8 0 10 #fcfcfc #000000 #000000 0 1;
#X obj 48 3799 *~ 0.9;
#X obj 558 3799 *~ 0.9;
#X obj 388 3799 *~ 0.9;
#X obj 218 3799 *~ 0.9;
#X obj 672 3826 * 2;
#X floatatom 672 3891 5 0 0 0 - - - 0;
#X obj 672 3912 t f f;
#X obj 672 3783 r walking;
#X obj 21 3539 t b b;
#X obj 21 3517 del 5000;
#X obj 558 3951 bp~ 1000 0, f 11;
#X obj 636 3951 bp~ 1000 0, f 11;
#X obj 198 3579 loadbang;
#X msg 198 3601 16;
#X msg 672 3847 \$1 2000;
#X obj 25 3014 metro 25;
#X msg 158 4185 set \$1;
#X obj 158 4425 dac~ 1 2;
#X obj 158 4207 tabplay~;
#X floatatom 89 4208 5 0 0 0 - - - 0;
#X obj 158 4286 *~ 1;
#X obj 158 4163 makefilename cane-%d;
#X obj 89 4077 bng 16 250 50 0 empty empty empty 0 -8 0 10 #fcfcfc #000000 #000000;
#X obj 203 4286 s play-cane;
#X obj 89 4033 r play-cane;
#X obj 89 4055 del 20;
#X obj 89 4098 t b b b, f 12;
#X obj 89 4120 random 100;
#X obj 89 4142 / 100;
#X obj 89 4164 * 0.5;
#X obj 89 4186 + 0.3;
#X obj 203 4313 rev2~ 100 95 5000 95, f 28;
#X obj 203 4382 *~ 0.5;
#X obj 258 4382 *~ 0.5;
#X obj 158 4382 *~ 0.5;
#X obj 158 4428 +~;
#X obj 203 4428 +~;
#X obj 379 4269 loadbang;
#X msg 379 4291 0.5;
#X obj 379 4313 t f f f;
#X obj 158 4142 random 10;
#X obj 158 4234 *~ 0;
#X obj 307 4141 line;
#X obj 307 4098 tgl 16 0 empty empty empty 0 -8 0 10 #fcfcfc #000000 #000000 0 1;
#X floatatom 307 4163 5 0 0 0 - - - 0;
#X obj 307 4076 r walking;
#X obj 32 4011 loadbang;
#X obj 32 4033 del 5000;
#X msg 307 4119 \$1 2000;
#X msg 502 4163 set \$1;
#X obj 502 4185 tabplay~;
#X obj 502 4141 makefilename card-%d;
#X obj 502 4120 random 2;
#X obj 463 4098 t b b, f 7;
#X obj 502 4212 *~ 1;
#X obj 502 4377 dac~ 1 2;
#X obj 547 4309 *~ 0.5;
#X obj 602 4309 *~ 0.5;
#X obj 502 4309 *~ 0.5;
#X obj 502 4355 +~;
#X obj 547 4355 +~;
#X obj 547 4240 rev2~ 100 85 5000 95, f 8;
#X obj 463 4056 r entrace-sound;
#X obj 626 3414 s end-unlock;
#X msg 626 3390 1;
#X obj 25 2627 spigot;
#X obj 64 2603 tgl 19 0 empty empty empty 0 -10 0 12 #fcfcfc #000000 #000000 0 1;
#X obj 20 1064 del 2000;
#X obj 17 1528 del 3000;
#X obj 19 2048 del 4000;
#X obj 134 2535 loadbang;
#X obj 134 2559 del 5000;
#X msg 134 2583 1;
#X obj 354 3210 t b b b, f 15;
#X obj 354 3282 t f f, f 12;
#X obj 405 3258 s end-unlock;
#X msg 405 3234 0;
#X obj 20 810 == 15;
#X obj 229 2562 r end-unlock;
#X obj 373 3489 r end-unlock;
#X obj 373 3513 * 0.9;
#X obj 357 2605 print end;
#X obj 618 296 s steps-status;
#X obj 618 274 step 9 0.1;
#X obj 373 3561 line;
#X obj 573 3392 *~ 0.7;
#X obj 238 3973 r end-unlock;
#X obj 238 4045 line;
#X msg 238 4021 \$1 3000;
#X obj 238 3997 * 1;
#X obj 158 4258 *~ 1;
#X msg 373 3537 \$1 5000;
#X obj 498 3255 del 1000;
#X obj 38 278 step 10 0.1;
#X obj 17 324 step 11 0.1;
#X connect 0 0 1 0;
#X connect 1 0 2 0;
#X connect 3 0 4 0;
#X connect 3 0 5 0;
#X connect 5 0 11 0;
#X connect 7 0 8 0;
#X connect 8 0 9 0;
#X connect 9 0 10 0;
#X connect 10 0 386 0;
#X connect 10 1 385 0;
#X connect 10 13 33 0;
#X connect 10 14 32 0;
#X connect 10 15 12 0;
#X connect 10 16 13 0;
#X connect 10 17 14 0;
#X connect 10 18 15 0;
#X connect 10 19 16 0;
#X connect 10 26 27 0;
#X connect 10 27 28 0;
#X connect 10 28 29 0;
#X connect 10 29 375 0;
#X connect 11 0 6 0;
#X connect 12 0 21 0;
#X connect 13 0 20 0;
#X connect 14 0 19 0;
#X connect 15 0 17 0;
#X connect 16 0 18 0;
#X connect 27 0 26 0;
#X connect 28 0 25 0;
#X connect 29 0 24 0;
#X connect 32 0 22 0;
#X connect 33 0 23 0;
#X connect 34 0 60 0;
#X connect 35 0 36 0;
#X connect 36 0 37 0;
#X connect 37 0 38 0;
#X connect 38 0 39 0;
#X connect 38 0 41 0;
#X connect 39 0 38 1;
#X connect 40 0 42 0;
#X connect 41 0 369 0;
#X connect 41 1 43 0;
#X connect 42 0 61 0;
#X connect 43 0 53 0;
#X connect 43 1 54 0;
#X connect 43 2 47 0;
#X connect 44 0 65 0;
#X connect 45 0 58 0;
#X connect 46 0 44 2;
#X connect 47 0 48 0;
#X connect 48 0 56 0;
#X connect 49 0 46 1;
#X connect 51 0 52 0;
#X connect 52 0 50 0;
#X connect 53 0 66 0;
#X connect 53 1 64 0;
#X connect 54 0 45 0;
#X connect 54 1 46 0;
#X connect 55 0 51 1;
#X connect 55 1 44 0;
#X connect 56 0 49 0;
#X connect 57 0 44 1;
#X connect 58 0 57 0;
#X connect 59 0 35 0;
#X connect 59 1 63 0;
#X connect 60 0 59 0;
#X connect 61 0 38 1;
#X connect 61 1 39 1;
#X connect 61 2 35 0;
#X connect 64 0 55 0;
#X connect 66 0 51 0;
#X connect 67 0 359 0;
#X connect 68 0 69 0;
#X connect 69 0 70 0;
#X connect 70 0 71 0;
#X connect 71 0 72 0;
#X connect 71 0 74 0;
#X connect 72 0 71 1;
#X connect 73 0 75 0;
#X connect 74 0 98 0;
#X connect 74 1 76 0;
#X connect 75 0 93 0;
#X connect 76 0 86 0;
#X connect 76 1 87 0;
#X connect 76 2 80 0;
#X connect 77 0 97 0;
#X connect 78 0 91 0;
#X connect 79 0 77 2;
#X connect 80 0 81 0;
#X connect 81 0 89 0;
#X connect 82 0 79 1;
#X connect 84 0 85 0;
#X connect 85 0 83 0;
#X connect 86 0 99 0;
#X connect 86 1 96 0;
#X connect 87 0 78 0;
#X connect 87 1 79 0;
#X connect 88 0 84 1;
#X connect 88 1 77 0;
#X connect 89 0 82 0;
#X connect 90 0 77 1;
#X connect 91 0 90 0;
#X connect 92 0 68 0;
#X connect 92 1 95 0;
#X connect 93 0 71 1;
#X connect 93 1 72 1;
#X connect 93 2 68 0;
#X connect 96 0 88 0;
#X connect 98 0 73 0;
#X connect 99 0 84 0;
#X connect 100 0 360 0;
#X connect 101 0 102 0;
#X connect 102 0 103 0;
#X connect 103 0 104 0;
#X connect 104 0 105 0;
#X connect 104 0 107 0;
#X connect 105 0 104 1;
#X connect 106 0 108 0;
#X connect 107 0 131 0;
#X connect 107 1 109 0;
#X connect 108 0 126 0;
#X connect 109 0 119 0;
#X connect 109 1 120 0;
#X connect 109 2 113 0;
#X connect 110 0 129 0;
#X connect 111 0 124 0;
#X connect 112 0 110 2;
#X connect 113 0 114 0;
#X connect 114 0 122 0;
#X connect 115 0 112 1;
#X connect 117 0 118 0;
#X connect 118 0 116 0;
#X connect 119 0 132 0;
#X connect 119 1 130 0;
#X connect 120 0 111 0;
#X connect 120 1 112 0;
#X connect 121 0 117 1;
#X connect 121 1 110 0;
#X connect 122 0 115 0;
#X connect 123 0 110 1;
#X connect 124 0 123 0;
#X connect 125 0 101 0;
#X connect 125 1 128 0;
#X connect 126 0 104 1;
#X connect 126 1 105 1;
#X connect 126 2 101 0;
#X connect 130 0 121 0;
#X connect 131 0 106 0;
#X connect 132 0 117 0;
#X connect 133 0 361 0;
#X connect 134 0 135 0;
#X connect 135 0 136 0;
#X connect 136 0 137 0;
#X connect 137 0 138 0;
#X connect 137 0 140 0;
#X connect 138 0 137 1;
#X connect 139 0 141 0;
#X connect 140 0 165 0;
#X connect 140 1 142 0;
#X connect 141 0 159 0;
#X connect 142 0 152 0;
#X connect 142 1 153 0;
#X connect 142 2 146 0;
#X connect 143 0 163 0;
#X connect 144 0 157 0;
#X connect 145 0 143 2;
#X connect 146 0 147 0;
#X connect 147 0 155 0;
#X connect 148 0 145 1;
#X connect 150 0 151 0;
#X connect 151 0 149 0;
#X connect 152 0 161 0;
#X connect 152 1 162 0;
#X connect 153 0 144 0;
#X connect 153 1 145 0;
#X connect 154 0 150 1;
#X connect 154 1 143 0;
#X connect 155 0 148 0;
#X connect 156 0 143 1;
#X connect 157 0 156 0;
#X connect 158 0 134 0;
#X connect 158 1 164 0;
#X connect 159 0 137 1;
#X connect 159 1 138 1;
#X connect 159 2 134 0;
#X connect 161 0 150 0;
#X connect 162 0 154 0;
#X connect 165 0 139 0;
#X connect 166 0 167 0;
#X connect 166 1 167 1;
#X connect 167 0 169 0;
#X connect 167 1 169 1;
#X connect 168 0 357 0;
#X connect 169 0 180 0;
#X connect 170 1 173 0;
#X connect 171 0 172 0;
#X connect 171 0 174 1;
#X connect 172 0 171 1;
#X connect 173 0 174 0;
#X connect 173 1 171 0;
#X connect 174 0 175 0;
#X connect 175 0 215 0;
#X connect 175 1 176 0;
#X connect 176 0 179 0;
#X connect 177 0 178 0;
#X connect 178 0 171 1;
#X connect 179 0 171 1;
#X connect 180 0 212 0;
#X connect 180 1 170 0;
#X connect 181 0 194 0;
#X connect 181 1 189 0;
#X connect 182 0 166 0;
#X connect 183 0 184 0;
#X connect 184 0 225 0;
#X connect 185 0 182 1;
#X connect 186 0 187 0;
#X connect 187 0 185 0;
#X connect 188 0 182 0;
#X connect 188 1 183 0;
#X connect 188 1 235 0;
#X connect 189 0 194 1;
#X connect 190 0 191 0;
#X connect 190 1 192 0;
#X connect 190 2 192 0;
#X connect 190 3 191 0;
#X connect 191 0 195 0;
#X connect 192 0 195 0;
#X connect 196 0 307 0;
#X connect 197 0 198 1;
#X connect 198 0 197 0;
#X connect 198 0 201 0;
#X connect 199 0 202 0;
#X connect 200 0 198 1;
#X connect 201 0 207 0;
#X connect 201 1 199 0;
#X connect 202 0 203 0;
#X connect 202 1 200 0;
#X connect 202 2 196 0;
#X connect 203 0 208 1;
#X connect 204 0 206 0;
#X connect 204 1 205 1;
#X connect 205 0 206 1;
#X connect 205 0 208 0;
#X connect 206 0 205 0;
#X connect 207 0 204 0;
#X connect 208 0 209 0;
#X connect 209 0 190 0;
#X connect 209 1 210 0;
#X connect 209 2 203 0;
#X connect 210 0 211 0;
#X connect 211 0 206 1;
#X connect 212 0 196 0;
#X connect 212 2 181 0;
#X connect 213 0 218 0;
#X connect 216 0 217 0;
#X connect 217 0 219 0;
#X connect 218 0 214 0;
#X connect 219 0 223 0;
#X connect 219 1 187 0;
#X connect 219 1 228 0;
#X connect 221 0 220 0;
#X connect 222 0 221 0;
#X connect 225 0 185 0;
#X connect 225 1 224 0;
#X connect 225 1 179 0;
#X connect 226 0 227 0;
#X connect 227 0 229 0;
#X connect 227 0 221 0;
#X connect 228 0 215 0;
#X connect 229 0 230 0;
#X connect 231 0 366 0;
#X connect 234 0 365 0;
#X connect 235 0 236 0;
#X connect 236 0 234 0;
#X connect 237 0 238 0;
#X connect 238 0 240 0;
#X connect 238 1 356 0;
#X connect 239 0 384 0;
#X connect 239 1 241 0;
#X connect 240 0 377 0;
#X connect 241 0 242 0;
#X connect 242 0 237 0;
#X connect 243 0 248 0;
#X connect 244 0 246 0;
#X connect 245 0 247 0;
#X connect 249 0 251 0;
#X connect 250 0 249 0;
#X connect 251 0 292 0;
#X connect 252 0 263 0;
#X connect 253 0 254 0;
#X connect 253 0 258 0;
#X connect 254 0 253 1;
#X connect 255 0 301 0;
#X connect 256 0 265 0;
#X connect 257 0 270 0;
#X connect 258 0 259 0;
#X connect 259 0 256 0;
#X connect 259 1 257 0;
#X connect 259 2 260 0;
#X connect 259 3 261 0;
#X connect 260 0 275 0;
#X connect 261 0 280 0;
#X connect 262 0 253 1;
#X connect 263 0 253 0;
#X connect 264 0 250 0;
#X connect 265 0 251 0;
#X connect 265 1 264 0;
#X connect 266 0 268 0;
#X connect 267 0 266 0;
#X connect 268 0 295 0;
#X connect 269 0 267 0;
#X connect 270 0 268 0;
#X connect 270 1 269 0;
#X connect 271 0 273 0;
#X connect 272 0 271 0;
#X connect 273 0 294 0;
#X connect 274 0 272 0;
#X connect 275 0 273 0;
#X connect 275 1 274 0;
#X connect 276 0 278 0;
#X connect 277 0 276 0;
#X connect 278 0 293 0;
#X connect 279 0 277 0;
#X connect 280 0 278 0;
#X connect 280 1 279 0;
#X connect 282 0 303 0;
#X connect 283 0 302 0;
#X connect 284 0 303 0;
#X connect 285 0 302 0;
#X connect 286 0 303 0;
#X connect 287 0 302 0;
#X connect 288 0 303 0;
#X connect 289 0 302 0;
#X connect 290 0 297 0;
#X connect 291 0 296 0;
#X connect 292 0 282 0;
#X connect 292 0 289 0;
#X connect 293 0 287 0;
#X connect 293 0 288 0;
#X connect 294 0 285 0;
#X connect 294 0 286 0;
#X connect 295 0 283 0;
#X connect 295 0 284 0;
#X connect 296 0 306 0;
#X connect 297 0 298 0;
#X connect 298 0 302 2;
#X connect 298 1 303 2;
#X connect 299 0 291 0;
#X connect 300 0 252 0;
#X connect 300 1 262 0;
#X connect 301 0 300 0;
#X connect 302 0 281 0;
#X connect 303 0 281 1;
#X connect 304 0 305 0;
#X connect 305 0 264 1;
#X connect 305 0 269 1;
#X connect 305 0 274 1;
#X connect 305 0 279 1;
#X connect 306 0 290 0;
#X connect 307 0 198 0;
#X connect 308 0 310 0;
#X connect 310 0 333 0;
#X connect 310 1 315 0;
#X connect 311 0 312 1;
#X connect 312 0 323 0;
#X connect 312 0 326 0;
#X connect 313 0 308 0;
#X connect 314 0 318 0;
#X connect 316 0 317 0;
#X connect 317 0 314 0;
#X connect 318 0 319 0;
#X connect 318 1 310 0;
#X connect 318 2 332 0;
#X connect 319 0 320 0;
#X connect 320 0 321 0;
#X connect 321 0 322 0;
#X connect 322 0 311 0;
#X connect 323 0 324 0;
#X connect 323 1 325 0;
#X connect 324 0 327 1;
#X connect 325 0 328 1;
#X connect 326 0 327 0;
#X connect 326 0 328 0;
#X connect 327 0 309 0;
#X connect 328 0 309 1;
#X connect 329 0 330 0;
#X connect 330 0 331 0;
#X connect 331 0 326 1;
#X connect 331 1 324 1;
#X connect 331 2 325 1;
#X connect 332 0 313 0;
#X connect 333 0 382 0;
#X connect 334 0 336 0;
#X connect 335 0 340 0;
#X connect 336 0 333 1;
#X connect 337 0 335 0;
#X connect 338 0 339 0;
#X connect 339 0 314 0;
#X connect 340 0 334 0;
#X connect 341 0 342 0;
#X connect 342 0 346 0;
#X connect 343 0 341 0;
#X connect 344 0 343 0;
#X connect 345 0 342 0;
#X connect 345 1 344 0;
#X connect 346 0 350 0;
#X connect 346 0 353 0;
#X connect 348 0 351 1;
#X connect 349 0 352 1;
#X connect 350 0 351 0;
#X connect 350 0 352 0;
#X connect 351 0 347 0;
#X connect 352 0 347 1;
#X connect 353 0 348 0;
#X connect 353 1 349 0;
#X connect 354 0 345 0;
#X connect 356 0 355 0;
#X connect 357 0 188 0;
#X connect 358 0 357 1;
#X connect 358 0 373 0;
#X connect 359 0 92 0;
#X connect 360 0 125 0;
#X connect 361 0 158 0;
#X connect 362 0 363 0;
#X connect 363 0 364 0;
#X connect 364 0 358 0;
#X connect 365 0 231 0;
#X connect 365 1 368 0;
#X connect 365 2 239 0;
#X connect 366 0 233 0;
#X connect 366 1 232 0;
#X connect 368 0 367 0;
#X connect 369 0 40 0;
#X connect 370 0 358 0;
#X connect 371 0 372 0;
#X connect 372 0 383 0;
#X connect 375 0 374 0;
#X connect 376 0 293 1;
#X connect 376 0 294 1;
#X connect 376 0 295 1;
#X connect 376 0 292 1;
#X connect 377 0 303 0;
#X connect 377 0 302 0;
#X connect 378 0 381 0;
#X connect 379 0 382 1;
#X connect 380 0 379 0;
#X connect 381 0 380 0;
#X connect 382 0 312 0;
#X connect 383 0 376 0;
#X connect 384 0 238 0;
#X connect 385 0 30 0;
#X connect 386 0 31 0;
