#N canvas -4 159 2560 1316 10;
#X obj 39 230 loadbang;
#X obj 39 285 s bela_setTrill @hv_param;
#X obj 39 346 r bela_trillCreated;
#X obj 66 397 print bela_trillCreated;
#X msg 39 258 new craft-01 1 CRAFT;
#X obj 39 422 route craft-01;
#X obj 39 525 s bela_setTrill @hv_param;
#X text 223 363 When created \, print and bang. If initialized \, change params. <mode> => raw <prescaler> => 2 <threshold> => 0.01 <baseline> => [reset];
#X text 223 228 Initialize Trill device <sensor_id> => craft-01 <bus> => 1 <device> => CRAFT <address> => [null];
#X obj 39 583 r bela_trill;
#X obj 39 609 route craft-01;
#X obj 39 661 pack f f f f f f;
#N canvas 731 155 908 627 throttle_time 0;
#X obj 49 60 t a b;
#X obj 50 35 inlet;
#X obj 73 193 spigot;
#X obj 106 166 tgl 15 0 empty empty empty 17 7 0 10 #fcfcfc #000000 #000000 0 1;
#X obj 73 235 outlet;
#X obj 270 20 loadbang;
#X obj 156 109 timer;
#X text 96 48 Let one input through every;
#X text 304 50 ms (at least);
#X obj 227 22 bng 15 250 50 0 empty empty empty 17 7 0 10 #fcfcfc #000000 #000000;
#X obj 154 141 >;
#X obj 204 142 select 1;
#X obj 270 50 200;
#X connect 0 0 2 0;
#X connect 0 1 6 1;
#X connect 1 0 0 0;
#X connect 2 0 4 0;
#X connect 3 0 2 1;
#X connect 5 0 12 0;
#X connect 6 0 10 0;
#X connect 9 0 12 0;
#X connect 10 0 3 0;
#X connect 10 0 11 0;
#X connect 11 0 6 0;
#X connect 12 0 10 1;
#X restore 39 635 pd throttle_time;
#X obj 39 687 print craft-01;
#X text 223 626 Receive values from all Trills. Filter from craft-01. Print first 6 values.;
#X msg 39 484 mode craft-01 raw \, prescaler craft-01 1 \, threshold craft-01 0.01 \, updateBaseline craft-01;
#X obj 141 736 trill-steps-list, f 70;
#X obj 138 764 print;
#X obj 542 688 bng 16 250 50 0 empty empty empty 0 -8 0 10 #fcfcfc #000000 #000000;
#X msg 111 1076 set \$1;
#X obj 111 1054 makefilename metro-%d;
#X obj 111 1098 tabplay~;
#X obj 84 882 tgl 16 0 empty empty empty 0 -8 0 10 #fcfcfc #000000 #000000 0 1;
#X obj 84 925 f;
#X obj 111 925 + 1;
#X obj 84 816 loadbang;
#X obj 84 991 bng 16 250 50 0 empty empty empty 0 -8 0 10 #fcfcfc #000000 #000000;
#X obj 254 991 bng 16 250 50 0 empty empty empty 0 -8 0 10 #fcfcfc #000000 #000000;
#X obj 84 947 % 4;
#X obj 84 969 sel 0 1 2 3, f 114;
#X obj 424 991 bng 16 250 50 0 empty empty empty 0 -8 0 10 #fcfcfc #000000 #000000;
#X obj 594 991 bng 16 250 50 0 empty empty empty 0 -8 0 10 #fcfcfc #000000 #000000;
#X msg 111 882 0;
#X obj 84 903 metro 8000;
#X obj 111 1033 random 65;
#X obj 84 1012 t b b;
#X msg 281 1076 set \$1;
#X obj 281 1054 makefilename metro-%d;
#X obj 281 1098 tabplay~;
#X obj 281 1033 random 65;
#X obj 254 1012 t b b;
#X msg 451 1076 set \$1;
#X obj 451 1054 makefilename metro-%d;
#X obj 451 1098 tabplay~;
#X obj 451 1033 random 65;
#X obj 424 1012 t b b;
#X msg 621 1076 set \$1;
#X obj 621 1054 makefilename metro-%d;
#X obj 621 1098 tabplay~;
#X obj 621 1033 random 65;
#X obj 594 1012 t b b;
#X msg 911 802 set \$1;
#X obj 911 999 dac~ 1 2;
#X obj 911 824 tabplay~;
#X floatatom 842 825 5 0 0 0 - - - 0;
#X obj 911 878 *~ 1;
#X obj 911 780 makefilename cane-%d;
#X obj 842 694 bng 16 250 50 0 empty empty empty 0 -8 0 10 #fcfcfc #000000 #000000;
#X obj 956 878 s play-cane;
#X obj 842 650 r play-cane;
#X obj 842 672 del 20;
#X obj 842 715 t b b b, f 12;
#X obj 842 737 random 100;
#X obj 842 759 / 100;
#X obj 842 781 * 0.5;
#X obj 842 803 + 0.3;
#X obj 956 905 rev2~ 100 95 5000 95, f 28;
#X obj 956 931 *~ 0.5;
#X obj 1011 931 *~ 0.5;
#X obj 911 931 *~ 0.5;
#X obj 911 977 +~;
#X obj 956 977 +~;
#X obj 621 1302 dac~ 1 2;
#X obj 162 1147 *~ 0;
#X obj 281 1147 *~ 0.75;
#X obj 332 1147 *~ 0.25;
#X obj 451 1147 *~ 0.25;
#X obj 502 1147 *~ 0.75;
#X obj 621 1147 *~ 0;
#X obj 699 1147 *~ 1;
#X obj 111 1147 *~ 1;
#X obj 972 49 sample-loader ./samples/cane cane 10;
#X obj 960 70 sample-loader ./samples/metro metro 65;
#X obj 1040 736 loadbang;
#X msg 1040 758 0.5;
#X obj 1040 780 t f f f;
#X obj 735 1190 line;
#X obj 735 1126 tgl 16 0 empty empty empty 0 -8 0 10 #fcfcfc #000000 #000000 0 1;
#X obj 735 1106 bng 16 250 50 0 empty empty empty 0 -8 0 10 #fcfcfc #000000 #000000;
#X obj 111 1120 *~ 0.9;
#X obj 621 1120 *~ 0.9;
#X obj 451 1120 *~ 0.9;
#X obj 281 1120 *~ 0.9;
#X obj 735 1147 * 2;
#X floatatom 735 1212 5 0 0 0 - - - 0;
#X obj 735 1233 t f f;
#X msg 735 1168 \$1 3000;
#X text 975 688 first cane sound [!];
#X obj 911 736 random 10;
#X obj 911 758 + 1;
#X obj 911 851 *~ 0;
#X obj 1131 794 line;
#X obj 1131 751 tgl 16 0 empty empty empty 0 -8 0 10 #fcfcfc #000000 #000000 0 1;
#X obj 1131 731 bng 16 250 50 0 empty empty empty 0 -8 0 10 #fcfcfc #000000 #000000;
#X floatatom 1131 816 5 0 0 0 - - - 0;
#X msg 1131 772 \$1 3000;
#X obj 735 1084 r walking;
#X obj 1131 709 r walking;
#X obj 667 820 bng 16 250 50 0 empty empty empty 0 -8 0 10 #fcfcfc #000000 #000000;
#X obj 667 841 s walking;
#X obj 84 860 t b b;
#X obj 785 628 loadbang;
#X obj 785 650 del 5000;
#X obj 84 838 del 5000;
#X obj 621 1272 bp~ 1000 0, f 11;
#X obj 699 1272 bp~ 1000 0, f 11;
#X connect 0 0 4 0;
#X connect 2 0 3 0;
#X connect 2 0 5 0;
#X connect 4 0 1 0;
#X connect 5 0 15 0;
#X connect 9 0 10 0;
#X connect 10 0 12 0;
#X connect 11 0 13 0;
#X connect 12 0 11 0;
#X connect 15 0 6 0;
#X connect 16 0 17 0;
#X connect 18 0 16 30;
#X connect 19 0 21 0;
#X connect 20 0 19 0;
#X connect 21 0 89 0;
#X connect 22 0 33 0;
#X connect 23 0 24 0;
#X connect 23 0 28 0;
#X connect 24 0 23 1;
#X connect 25 0 113 0;
#X connect 26 0 35 0;
#X connect 27 0 40 0;
#X connect 28 0 29 0;
#X connect 29 0 26 0;
#X connect 29 1 27 0;
#X connect 29 2 30 0;
#X connect 29 3 31 0;
#X connect 30 0 45 0;
#X connect 31 0 50 0;
#X connect 32 0 23 1;
#X connect 33 0 23 0;
#X connect 34 0 20 0;
#X connect 35 0 21 0;
#X connect 35 1 34 0;
#X connect 36 0 38 0;
#X connect 37 0 36 0;
#X connect 38 0 92 0;
#X connect 39 0 37 0;
#X connect 40 0 38 0;
#X connect 40 1 39 0;
#X connect 41 0 43 0;
#X connect 42 0 41 0;
#X connect 43 0 91 0;
#X connect 44 0 42 0;
#X connect 45 0 43 0;
#X connect 45 1 44 0;
#X connect 46 0 48 0;
#X connect 47 0 46 0;
#X connect 48 0 90 0;
#X connect 49 0 47 0;
#X connect 50 0 48 0;
#X connect 50 1 49 0;
#X connect 51 0 53 0;
#X connect 53 0 100 0;
#X connect 53 1 58 0;
#X connect 54 0 55 1;
#X connect 55 0 66 0;
#X connect 55 0 69 0;
#X connect 56 0 51 0;
#X connect 57 0 61 0;
#X connect 59 0 60 0;
#X connect 60 0 57 0;
#X connect 61 0 62 0;
#X connect 61 1 53 0;
#X connect 61 2 98 0;
#X connect 62 0 63 0;
#X connect 63 0 64 0;
#X connect 64 0 65 0;
#X connect 65 0 54 0;
#X connect 66 0 67 0;
#X connect 66 1 68 0;
#X connect 67 0 70 1;
#X connect 68 0 71 1;
#X connect 69 0 70 0;
#X connect 69 0 71 0;
#X connect 70 0 52 0;
#X connect 71 0 52 1;
#X connect 73 0 115 0;
#X connect 74 0 114 0;
#X connect 75 0 115 0;
#X connect 76 0 114 0;
#X connect 77 0 115 0;
#X connect 78 0 114 0;
#X connect 79 0 115 0;
#X connect 80 0 114 0;
#X connect 83 0 84 0;
#X connect 84 0 85 0;
#X connect 85 0 69 1;
#X connect 85 1 67 1;
#X connect 85 2 68 1;
#X connect 86 0 94 0;
#X connect 87 0 93 0;
#X connect 88 0 87 0;
#X connect 89 0 73 0;
#X connect 89 0 80 0;
#X connect 90 0 78 0;
#X connect 90 0 79 0;
#X connect 91 0 76 0;
#X connect 91 0 77 0;
#X connect 92 0 74 0;
#X connect 92 0 75 0;
#X connect 93 0 96 0;
#X connect 94 0 95 0;
#X connect 95 0 114 2;
#X connect 95 1 115 2;
#X connect 96 0 86 0;
#X connect 98 0 99 0;
#X connect 99 0 56 0;
#X connect 100 0 55 0;
#X connect 101 0 104 0;
#X connect 102 0 105 0;
#X connect 103 0 102 0;
#X connect 104 0 100 1;
#X connect 105 0 101 0;
#X connect 106 0 88 0;
#X connect 107 0 103 0;
#X connect 108 0 109 0;
#X connect 110 0 22 0;
#X connect 110 1 32 0;
#X connect 111 0 112 0;
#X connect 112 0 57 0;
#X connect 113 0 110 0;
#X connect 114 0 72 0;
#X connect 115 0 72 1;
