#N canvas 492 171 2560 1316 10;
#X msg 45 1225 set \$1;
#X obj 45 1203 makefilename metro-%d;
#X obj 45 1247 tabplay~;
#X obj 18 1031 tgl 16 0 empty empty empty 0 -8 0 10 #fcfcfc #000000 #000000 0 1;
#X obj 18 1074 f;
#X obj 45 1074 + 1;
#X obj 18 965 loadbang;
#X obj 18 1140 bng 16 250 50 0 empty empty empty 0 -8 0 10 #fcfcfc #000000 #000000;
#X obj 188 1140 bng 16 250 50 0 empty empty empty 0 -8 0 10 #fcfcfc #000000 #000000;
#X obj 18 1096 % 4;
#X obj 18 1118 sel 0 1 2 3, f 114;
#X obj 358 1140 bng 16 250 50 0 empty empty empty 0 -8 0 10 #fcfcfc #000000 #000000;
#X obj 528 1140 bng 16 250 50 0 empty empty empty 0 -8 0 10 #fcfcfc #000000 #000000;
#X msg 45 1031 0;
#X obj 18 1052 metro 8000;
#X obj 45 1182 random 65;
#X obj 18 1161 t b b;
#X msg 215 1225 set \$1;
#X obj 215 1203 makefilename metro-%d;
#X obj 215 1247 tabplay~;
#X obj 215 1182 random 65;
#X obj 188 1161 t b b;
#X msg 385 1225 set \$1;
#X obj 385 1203 makefilename metro-%d;
#X obj 385 1247 tabplay~;
#X obj 385 1182 random 65;
#X obj 358 1161 t b b;
#X msg 555 1225 set \$1;
#X obj 555 1203 makefilename metro-%d;
#X obj 555 1247 tabplay~;
#X obj 555 1182 random 65;
#X obj 528 1161 t b b;
#X msg 878 1135 set \$1;
#X obj 878 1375 dac~ 1 2;
#X obj 878 1157 tabplay~;
#X floatatom 809 1158 5 0 0 0 - - - 0;
#X obj 878 1211 *~ 1;
#X obj 878 1113 makefilename cane-%d;
#X obj 809 1027 bng 16 250 50 0 empty empty empty 0 -8 0 10 #fcfcfc #000000 #000000;
#X obj 923 1211 s play-cane;
#X obj 809 983 r play-cane;
#X obj 809 1005 del 20;
#X obj 809 1048 t b b b, f 12;
#X obj 809 1070 random 100;
#X obj 809 1092 / 100;
#X obj 809 1114 * 0.5;
#X obj 809 1136 + 0.3;
#X obj 923 1238 rev2~ 100 95 5000 95, f 28;
#X obj 923 1307 *~ 0.5;
#X obj 978 1307 *~ 0.5;
#X obj 878 1307 *~ 0.5;
#X obj 878 1353 +~;
#X obj 923 1353 +~;
#X obj 555 1451 dac~ 1 2;
#X obj 96 1296 *~ 0;
#X obj 215 1296 *~ 0.75;
#X obj 266 1296 *~ 0.25;
#X obj 385 1296 *~ 0.25;
#X obj 436 1296 *~ 0.75;
#X obj 555 1296 *~ 0;
#X obj 633 1296 *~ 1;
#X obj 45 1296 *~ 1;
#X obj 1099 1194 loadbang;
#X msg 1099 1216 0.5;
#X obj 1099 1238 t f f f;
#X obj 669 1339 line;
#X obj 669 1275 tgl 16 0 empty empty empty 0 -8 0 10 #fcfcfc #000000 #000000 0 1;
#X obj 669 1255 bng 16 250 50 0 empty empty empty 0 -8 0 10 #fcfcfc #000000 #000000;
#X obj 45 1269 *~ 0.9;
#X obj 555 1269 *~ 0.9;
#X obj 385 1269 *~ 0.9;
#X obj 215 1269 *~ 0.9;
#X obj 669 1296 * 2;
#X floatatom 669 1361 5 0 0 0 - - - 0;
#X obj 669 1382 t f f;
#X msg 669 1317 \$1 3000;
#X obj 878 1092 random 10;
#X obj 878 1184 *~ 0;
#X obj 1006 1091 line;
#X obj 1006 1048 tgl 16 0 empty empty empty 0 -8 0 10 #fcfcfc #000000 #000000 0 1;
#X obj 1006 1028 bng 16 250 50 0 empty empty empty 0 -8 0 10 #fcfcfc #000000 #000000;
#X floatatom 1006 1113 5 0 0 0 - - - 0;
#X msg 1006 1069 \$1 3000;
#X obj 669 1233 r walking;
#X obj 1006 1006 r walking;
#X obj 480 946 bng 16 250 50 0 empty empty empty 0 -8 0 10 #fcfcfc #000000 #000000;
#X obj 480 967 s walking;
#X obj 18 1009 t b b;
#X obj 752 961 loadbang;
#X obj 752 983 del 5000;
#X obj 18 987 del 5000;
#X obj 555 1421 bp~ 1000 0, f 11;
#X obj 633 1421 bp~ 1000 0, f 11;
#N canvas 740 0 1440 2496 metro-samples 0;
#X obj 17 19 loadbang;
#X obj 17 98 tgl 19 0 empty empty empty 0 -10 0 12 #fcfcfc #000000 #000000 0 1;
#X obj 17 129 metro 5;
#X obj 17 153 bng 19 250 50 0 empty empty empty 0 -10 0 12 #fcfcfc #000000 #000000;
#X obj 17 177 f;
#X obj 49 177 + 1;
#X obj 17 249 sel 1;
#X obj 17 201 t f f, f 8;
#X msg 17 273 0;
#X obj 170 297 t f f f, f 11;
#X obj 332 466 pack s f f, f 21;
#X obj 404 372 mod 6;
#X obj 476 442 f;
#X obj 476 348 / 6;
#X obj 476 371 int;
#X obj 476 418 + 5;
#X obj 170 514 soundfiler;
#X obj 170 466 pack s s;
#X msg 170 490 read -resize \$1 \$2;
#X obj 170 358 t f f, f 12;
#X obj 404 348 t f b, f 6;
#X obj 300 420 t s s;
#X obj 476 394 * 25;
#X obj 404 420 + 5;
#X obj 404 396 * 125;
#X obj 17 67 t b b, f 10;
#X obj 17 43 del 1000;
#X obj 17 297 t f f f, f 8;
#N canvas 304 304 1293 810 metro-tables 0;
#X obj 5 5 table metro-0;
#X obj 130 5 table metro-1;
#X obj 255 5 table metro-2;
#X obj 380 5 table metro-3;
#X obj 505 5 table metro-4;
#X obj 630 5 table metro-5;
#X obj 5 30 table metro-6;
#X obj 130 30 table metro-7;
#X obj 255 30 table metro-8;
#X obj 380 30 table metro-9;
#X obj 505 30 table metro-10;
#X obj 630 30 table metro-11;
#X obj 5 55 table metro-12;
#X obj 130 55 table metro-13;
#X obj 255 55 table metro-14;
#X obj 380 55 table metro-15;
#X restore 373 19 pd metro-tables;
#X msg 84 91 \; pd-metro-tables clear;
#X obj 300 382 makefilename metro-%d, f 12;
#X msg 332 490 \; pd-metro-tables obj \$2 \$3 table \$1;
#X obj 170 382 makefilename ./samples/metro-%d.wav, f 16;
#X obj 17 225 == 65;
#X obj 130 154 loadbang;
#X obj 130 198 - 1;
#X msg 130 176 16;
#X connect 0 0 26 0;
#X connect 1 0 2 0;
#X connect 2 0 3 0;
#X connect 3 0 4 0;
#X connect 4 0 5 0;
#X connect 4 0 7 0;
#X connect 5 0 4 1;
#X connect 6 0 8 0;
#X connect 7 0 33 0;
#X connect 7 1 9 0;
#X connect 8 0 27 0;
#X connect 9 0 19 0;
#X connect 9 1 20 0;
#X connect 9 2 13 0;
#X connect 10 0 31 0;
#X connect 11 0 24 0;
#X connect 12 0 10 2;
#X connect 13 0 14 0;
#X connect 14 0 22 0;
#X connect 15 0 12 1;
#X connect 17 0 18 0;
#X connect 18 0 16 0;
#X connect 19 0 32 0;
#X connect 19 1 30 0;
#X connect 20 0 11 0;
#X connect 20 1 12 0;
#X connect 21 0 17 1;
#X connect 21 1 10 0;
#X connect 22 0 15 0;
#X connect 23 0 10 1;
#X connect 24 0 23 0;
#X connect 25 0 1 0;
#X connect 25 1 29 0;
#X connect 26 0 25 0;
#X connect 27 0 4 1;
#X connect 27 1 5 1;
#X connect 27 2 1 0;
#X connect 30 0 21 0;
#X connect 32 0 17 0;
#X connect 33 0 6 0;
#X connect 34 0 36 0;
#X connect 35 0 33 1;
#X connect 36 0 35 0;
#X restore 1114 33 pd metro-samples;
#X obj 525 36 ./samples/cane cane 10;
#X obj 525 57 ./samples/metro metro 65;
#X obj 525 77 ./samples/card card 1;
#N canvas 2302 -184 1440 2496 cane-samples 0;
#X obj 17 19 loadbang;
#X obj 17 98 tgl 19 0 empty empty empty 0 -10 0 12 #fcfcfc #000000 #000000 0 1;
#X obj 17 129 metro 5;
#X obj 17 153 bng 19 250 50 0 empty empty empty 0 -10 0 12 #fcfcfc #000000 #000000;
#X obj 17 177 f;
#X obj 49 177 + 1;
#X obj 17 249 sel 1;
#X obj 17 201 t f f, f 8;
#X msg 17 273 0;
#X obj 170 297 t f f f, f 11;
#X obj 332 466 pack s f f, f 21;
#X obj 404 372 mod 6;
#X obj 476 442 f;
#X obj 476 348 / 6;
#X obj 476 371 int;
#X obj 476 418 + 5;
#X obj 170 514 soundfiler;
#X obj 170 466 pack s s;
#X msg 170 490 read -resize \$1 \$2;
#X obj 170 358 t f f, f 12;
#X obj 404 348 t f b, f 6;
#X obj 300 420 t s s;
#X obj 476 394 * 25;
#X obj 404 420 + 5;
#X obj 404 396 * 125;
#X obj 17 67 t b b, f 10;
#X obj 17 43 del 1000;
#X obj 17 297 t f f f, f 8;
#N canvas 304 304 1293 810 cane-tables 0;
#X obj 5 5 table cane-0;
#X obj 130 5 table cane-1;
#X obj 255 5 table cane-2;
#X obj 380 5 table cane-3;
#X obj 505 5 table cane-4;
#X obj 630 5 table cane-5;
#X obj 5 30 table cane-6;
#X obj 130 30 table cane-7;
#X obj 255 30 table cane-8;
#X obj 380 30 table cane-9;
#X obj 505 30 table cane-10;
#X restore 373 19 pd cane-tables;
#X msg 84 91 \; pd-cane-tables clear;
#X obj 300 382 makefilename cane-%d, f 12;
#X msg 332 490 \; pd-cane-tables obj \$2 \$3 table \$1;
#X obj 17 225 == 10;
#X obj 170 382 makefilename ./samples/cane-%d.wav, f 16;
#X connect 0 0 26 0;
#X connect 1 0 2 0;
#X connect 2 0 3 0;
#X connect 3 0 4 0;
#X connect 4 0 5 0;
#X connect 4 0 7 0;
#X connect 5 0 4 1;
#X connect 6 0 8 0;
#X connect 7 0 32 0;
#X connect 7 1 9 0;
#X connect 8 0 27 0;
#X connect 9 0 19 0;
#X connect 9 1 20 0;
#X connect 9 2 13 0;
#X connect 10 0 31 0;
#X connect 11 0 24 0;
#X connect 12 0 10 2;
#X connect 13 0 14 0;
#X connect 14 0 22 0;
#X connect 15 0 12 1;
#X connect 17 0 18 0;
#X connect 18 0 16 0;
#X connect 19 0 33 0;
#X connect 19 1 30 0;
#X connect 20 0 11 0;
#X connect 20 1 12 0;
#X connect 21 0 17 1;
#X connect 21 1 10 0;
#X connect 22 0 15 0;
#X connect 23 0 10 1;
#X connect 24 0 23 0;
#X connect 25 0 1 0;
#X connect 25 1 29 0;
#X connect 26 0 25 0;
#X connect 27 0 4 1;
#X connect 27 1 5 1;
#X connect 27 2 1 0;
#X connect 30 0 21 0;
#X connect 32 0 6 0;
#X connect 33 0 17 0;
#X restore 1114 55 pd cane-samples;
#X f 16;
#N canvas 2326 -77 1440 2496 card-samples 0;
#X obj 17 19 loadbang;
#X obj 17 98 tgl 19 0 empty empty empty 0 -10 0 12 #fcfcfc #000000 #000000 0 1;
#X obj 17 129 metro 5;
#X obj 17 153 bng 19 250 50 0 empty empty empty 0 -10 0 12 #fcfcfc #000000 #000000;
#X obj 17 177 f;
#X obj 49 177 + 1;
#X obj 17 249 sel 1;
#X obj 17 201 t f f, f 8;
#X msg 17 273 0;
#X obj 170 297 t f f f, f 11;
#X obj 332 466 pack s f f, f 21;
#X obj 404 372 mod 6;
#X obj 476 442 f;
#X obj 476 348 / 6;
#X obj 476 371 int;
#X obj 476 418 + 5;
#X obj 170 514 soundfiler;
#X obj 170 466 pack s s;
#X msg 170 490 read -resize \$1 \$2;
#X obj 170 358 t f f, f 12;
#X obj 404 348 t f b, f 6;
#X obj 300 420 t s s;
#X obj 476 394 * 25;
#X obj 404 420 + 5;
#X obj 404 396 * 125;
#X obj 17 67 t b b, f 10;
#X obj 17 43 del 1000;
#X obj 17 297 t f f f, f 8;
#N canvas 304 304 1293 810 card-tables 0;
#X obj 5 5 table card-0;
#X obj 130 5 table card-1;
#X restore 373 19 pd card-tables;
#X msg 84 91 \; pd-card-tables clear;
#X msg 332 490 \; pd-card-tables obj \$2 \$3 table \$1;
#X obj 300 382 makefilename card-%d, f 12;
#X obj 17 225 == 1;
#X obj 170 382 makefilename ./samples/card-%d.wav, f 16;
#X connect 0 0 26 0;
#X connect 1 0 2 0;
#X connect 2 0 3 0;
#X connect 3 0 4 0;
#X connect 4 0 5 0;
#X connect 4 0 7 0;
#X connect 5 0 4 1;
#X connect 6 0 8 0;
#X connect 7 0 32 0;
#X connect 7 1 9 0;
#X connect 8 0 27 0;
#X connect 9 0 19 0;
#X connect 9 1 20 0;
#X connect 9 2 13 0;
#X connect 10 0 30 0;
#X connect 11 0 24 0;
#X connect 12 0 10 2;
#X connect 13 0 14 0;
#X connect 14 0 22 0;
#X connect 15 0 12 1;
#X connect 17 0 18 0;
#X connect 18 0 16 0;
#X connect 19 0 33 0;
#X connect 19 1 31 0;
#X connect 20 0 11 0;
#X connect 20 1 12 0;
#X connect 21 0 17 1;
#X connect 21 1 10 0;
#X connect 22 0 15 0;
#X connect 23 0 10 1;
#X connect 24 0 23 0;
#X connect 25 0 1 0;
#X connect 25 1 29 0;
#X connect 26 0 25 0;
#X connect 27 0 4 1;
#X connect 27 1 5 1;
#X connect 27 2 1 0;
#X connect 31 0 21 0;
#X connect 32 0 6 0;
#X connect 33 0 17 0;
#X restore 1114 77 pd card-samples;
#X f 16;
#X msg 1345 1091 set \$1;
#X obj 1345 1113 tabplay~;
#X obj 1345 1069 makefilename card-%d;
#X obj 1345 1048 random 2;
#X obj 1306 1026 t b b, f 7;
#X obj 1306 1005 bng 16 250 50 0 empty empty empty 0 -8 0 10 #fcfcfc #000000 #000000;
#X obj 1345 1140 *~ 1;
#X obj 1345 1305 dac~ 1 2;
#X obj 1390 1237 *~ 0.5;
#X obj 1445 1237 *~ 0.5;
#X obj 1345 1237 *~ 0.5;
#X obj 1345 1283 +~;
#X obj 1390 1283 +~;
#X obj 1390 1168 rev2~ 100 85 5000 95, f 28;
#X obj 1306 984 r start;
#X obj 195 1049 loadbang;
#X msg 195 1071 16;
#X obj 17 12 loadbang;
#X msg 17 34 new craft-01 1 CRAFT;
#X obj 17 56 s bela_setTrill @hv_param;
#X obj 17 83 r bela_trillCreated;
#X obj 110 110 print bela_trillCreated;
#X obj 17 110 route craft-01;
#X obj 17 154 s bela_setTrill @hv_param;
#X obj 17 181 r bela_trill;
#X obj 17 203 route craft-01;
#N canvas 2598 -662 1009 720 throttle_time 0;
#X obj 49 60 t a b;
#X obj 50 35 inlet;
#X obj 73 193 spigot;
#X obj 106 166 tgl 15 0 empty empty empty 17 7 0 10 #fcfcfc #000000 #000000 0 1;
#X obj 73 235 outlet;
#X obj 270 20 loadbang;
#X obj 156 109 timer;
#X text 96 48 Let one input through every;
#X text 304 50 ms (at least);
#X obj 227 22 bng 15 250 50 0 empty empty empty 17 7 0 10 #fcfcfc #000000 #000000;
#X obj 154 141 >;
#X obj 204 142 select 1;
#X obj 270 50 \$1;
#X connect 0 0 2 0;
#X connect 0 1 6 1;
#X connect 1 0 0 0;
#X connect 2 0 4 0;
#X connect 3 0 2 1;
#X connect 5 0 12 0;
#X connect 6 0 10 0;
#X connect 9 0 12 0;
#X connect 10 0 3 0;
#X connect 10 0 11 0;
#X connect 11 0 6 0;
#X connect 12 0 10 1;
#X restore 17 225 pd throttle_time 250;
#X obj 113 269 print craft-01;
#X obj 17 269 s craft-01;
#X obj 17 303 r craft-01;
#X obj 17 247 pack f f f f f f f f f f f f f f f f f f f f f f f f f f f f f f, f 64;
#X obj 17 325 unpack f f f f f f f f f f f f f f f f f f f f f f f f f f f f f f, f 112;
#X msg 17 132 prescaler craft-01 5 \, threshold craft-01 0.01;
#X obj 363 523 step 4 0.1;
#X obj 386 479 step 3 0.1;
#X obj 409 435 step 1 0.1;
#X obj 432 391 step 2 0.1;
#X obj 455 347 step 5 0.1;
#X obj 35 731 r steps-status, f 18;
#X obj 432 413 s steps-status;
#X obj 455 369 s steps-status;
#X obj 409 457 s steps-status;
#X obj 386 501 s steps-status;
#X obj 363 545 s steps-status;
#X obj 340 589 s steps-status;
#X obj 316 633 s steps-status;
#X obj 686 369 s steps-status;
#X obj 663 413 s steps-status;
#X obj 640 457 s steps-status;
#X obj 616 501 s steps-status;
#X obj 616 479 step 6 0.1;
#X obj 640 435 step 7 0.1;
#X obj 663 391 step 8 0.1;
#X obj 686 347 step 9 0.1;
#X obj 40 369 s steps-status;
#X obj 17 413 s steps-status;
#X obj 836 358 unpack f f;
#X obj 836 380 swap, f 10;
#X obj 836 228 r steps-status;
#X obj 836 402 pack f f, f 10;
#X obj 17 391 step 10 0.1;
#X obj 40 347 step 11 0.1;
#X obj 340 567 step 12 0.1;
#X obj 316 611 step 13 0.1;
#X obj 1115 446 route 0 1;
#X obj 1168 490 f;
#X obj 1195 490 + 1;
#X obj 1141 468 t f b;
#X obj 1141 490 ==;
#X obj 1141 512 t f f;
#X obj 1168 534 sel 0;
#X obj 1183 446 loadbang;
#X msg 1183 468 1;
#X msg 1168 556 1;
#X obj 1141 581 print on-route;
#X obj 836 424 t l l, f 47;
#X obj 1007 468 unpack;
#X obj 1027 179 s steps-status;
#X obj 836 336 spigot;
#X obj 869 271 route 1;
#X obj 869 293 sel 1;
#X obj 869 315 tgl 16 0 empty empty empty 0 -8 0 10 #fcfcfc #000000 #000000 0 1;
#X obj 920 271 loadbang;
#X msg 920 293 0;
#X obj 836 250 t l l, f 6;
#X listbox 922 557 26 0 0 0 - - - 0;
#X obj 1088 490 - 1;
#X obj 866 759 sel 0 1 2, f 11;
#X msg 866 791 0;
#X msg 908 791 1;
#X obj 1114 99 table track 13, f 16;
#X obj 1007 513 tabwrite track;
#X obj 922 535 array get track;
#X obj 866 818 s on-track;
#X obj 157 731 r on-route, f 11;
#X obj 236 731 r on-track, f 11;
#X obj 836 513 tgl 16 0 empty empty empty 0 -8 0 10 #fcfcfc #000000 #000000 0 1;
#X obj 864 556 + 1;
#X obj 836 556 f;
#X obj 935 600 sel 12;
#X msg 963 644 0;
#X obj 836 578 t f f, f 17;
#X obj 935 622 t b b b, f 10;
#X obj 935 644 tgl 16 0 empty empty empty 0 -8 0 10 #fcfcfc #000000 #000000 0 1;
#X obj 836 622 t b f, f 8;
#X obj 866 644 + 0;
#X obj 836 644 f;
#X obj 836 600 tabread track;
#X obj 866 666 spigot, f 12;
#X obj 866 688 t f b b, f 12;
#X obj 900 715 t b;
#X msg 900 737 0;
#X obj 836 534 metro 10;
#X obj 836 446 t b b l, f 29;
#X obj 157 753 print route;
#X obj 236 753 print track;
#X obj 35 753 print current-step;
#X obj 1027 136 tgl 16 0 empty empty empty 0 -8 0 10 #fcfcfc #000000 #000000 0 1;
#X msg 1027 157 1 \$1;
#X obj 1063 136 tgl 16 0 empty empty empty 0 -8 0 10 #fcfcfc #000000 #000000 0 1;
#X msg 1063 157 5 \$1;
#X obj 1099 136 tgl 16 0 empty empty empty 0 -8 0 10 #fcfcfc #000000 #000000 0 1;
#X msg 1099 157 13 \$1;
#X connect 0 0 2 0;
#X connect 1 0 0 0;
#X connect 2 0 68 0;
#X connect 3 0 14 0;
#X connect 4 0 5 0;
#X connect 4 0 9 0;
#X connect 5 0 4 1;
#X connect 6 0 90 0;
#X connect 7 0 16 0;
#X connect 8 0 21 0;
#X connect 9 0 10 0;
#X connect 10 0 7 0;
#X connect 10 1 8 0;
#X connect 10 2 11 0;
#X connect 10 3 12 0;
#X connect 11 0 26 0;
#X connect 12 0 31 0;
#X connect 13 0 4 1;
#X connect 14 0 4 0;
#X connect 15 0 1 0;
#X connect 16 0 2 0;
#X connect 16 1 15 0;
#X connect 17 0 19 0;
#X connect 18 0 17 0;
#X connect 19 0 71 0;
#X connect 20 0 18 0;
#X connect 21 0 19 0;
#X connect 21 1 20 0;
#X connect 22 0 24 0;
#X connect 23 0 22 0;
#X connect 24 0 70 0;
#X connect 25 0 23 0;
#X connect 26 0 24 0;
#X connect 26 1 25 0;
#X connect 27 0 29 0;
#X connect 28 0 27 0;
#X connect 29 0 69 0;
#X connect 30 0 28 0;
#X connect 31 0 29 0;
#X connect 31 1 30 0;
#X connect 32 0 34 0;
#X connect 34 0 77 0;
#X connect 34 1 39 0;
#X connect 35 0 36 1;
#X connect 36 0 47 0;
#X connect 36 0 50 0;
#X connect 37 0 32 0;
#X connect 38 0 42 0;
#X connect 40 0 41 0;
#X connect 41 0 38 0;
#X connect 42 0 43 0;
#X connect 42 1 34 0;
#X connect 42 2 76 0;
#X connect 43 0 44 0;
#X connect 44 0 45 0;
#X connect 45 0 46 0;
#X connect 46 0 35 0;
#X connect 47 0 48 0;
#X connect 47 1 49 0;
#X connect 48 0 51 1;
#X connect 49 0 52 1;
#X connect 50 0 51 0;
#X connect 50 0 52 0;
#X connect 51 0 33 0;
#X connect 52 0 33 1;
#X connect 54 0 92 0;
#X connect 55 0 91 0;
#X connect 56 0 92 0;
#X connect 57 0 91 0;
#X connect 58 0 92 0;
#X connect 59 0 91 0;
#X connect 60 0 92 0;
#X connect 61 0 91 0;
#X connect 62 0 63 0;
#X connect 63 0 64 0;
#X connect 64 0 50 1;
#X connect 64 1 48 1;
#X connect 64 2 49 1;
#X connect 65 0 73 0;
#X connect 66 0 72 0;
#X connect 67 0 66 0;
#X connect 68 0 54 0;
#X connect 68 0 61 0;
#X connect 69 0 59 0;
#X connect 69 0 60 0;
#X connect 70 0 57 0;
#X connect 70 0 58 0;
#X connect 71 0 55 0;
#X connect 71 0 56 0;
#X connect 72 0 75 0;
#X connect 73 0 74 0;
#X connect 74 0 91 2;
#X connect 74 1 92 2;
#X connect 75 0 65 0;
#X connect 76 0 37 0;
#X connect 77 0 36 0;
#X connect 78 0 81 0;
#X connect 79 0 82 0;
#X connect 80 0 79 0;
#X connect 81 0 77 1;
#X connect 82 0 78 0;
#X connect 83 0 67 0;
#X connect 84 0 80 0;
#X connect 85 0 86 0;
#X connect 87 0 3 0;
#X connect 87 1 13 0;
#X connect 88 0 89 0;
#X connect 89 0 38 0;
#X connect 90 0 87 0;
#X connect 91 0 53 0;
#X connect 92 0 53 1;
#X connect 99 0 100 0;
#X connect 100 0 105 0;
#X connect 101 0 99 0;
#X connect 102 0 101 0;
#X connect 103 0 100 0;
#X connect 103 1 102 0;
#X connect 104 0 103 0;
#X connect 105 0 109 0;
#X connect 105 0 112 0;
#X connect 107 0 110 1;
#X connect 108 0 111 1;
#X connect 109 0 110 0;
#X connect 109 0 111 0;
#X connect 110 0 106 0;
#X connect 111 0 106 1;
#X connect 112 0 107 0;
#X connect 112 1 108 0;
#X connect 113 0 104 0;
#X connect 114 0 115 0;
#X connect 115 0 15 1;
#X connect 115 0 20 1;
#X connect 115 0 25 1;
#X connect 115 0 30 1;
#X connect 116 0 117 0;
#X connect 117 0 118 0;
#X connect 119 0 120 0;
#X connect 119 0 121 0;
#X connect 121 0 131 0;
#X connect 123 0 124 0;
#X connect 124 0 125 0;
#X connect 125 0 129 0;
#X connect 128 0 130 0;
#X connect 129 0 127 0;
#X connect 130 0 159 0;
#X connect 130 1 160 0;
#X connect 130 13 162 0;
#X connect 130 14 161 0;
#X connect 130 15 132 0;
#X connect 130 16 133 0;
#X connect 130 17 134 0;
#X connect 130 18 135 0;
#X connect 130 19 136 0;
#X connect 130 26 149 0;
#X connect 130 27 150 0;
#X connect 130 28 151 0;
#X connect 130 29 152 0;
#X connect 131 0 122 0;
#X connect 132 0 142 0;
#X connect 133 0 141 0;
#X connect 134 0 140 0;
#X connect 135 0 138 0;
#X connect 136 0 139 0;
#X connect 149 0 148 0;
#X connect 150 0 147 0;
#X connect 151 0 146 0;
#X connect 152 0 145 0;
#X connect 155 0 156 0;
#X connect 155 1 156 1;
#X connect 156 0 158 0;
#X connect 156 1 158 1;
#X connect 157 0 183 0;
#X connect 158 0 174 0;
#X connect 159 0 154 0;
#X connect 160 0 153 0;
#X connect 161 0 143 0;
#X connect 162 0 144 0;
#X connect 163 1 166 0;
#X connect 164 0 165 0;
#X connect 164 0 167 1;
#X connect 165 0 164 1;
#X connect 166 0 167 0;
#X connect 166 1 164 0;
#X connect 167 0 168 0;
#X connect 168 0 173 0;
#X connect 168 1 169 0;
#X connect 169 0 172 0;
#X connect 170 0 171 0;
#X connect 171 0 164 1;
#X connect 172 0 164 1;
#X connect 174 0 212 0;
#X connect 174 1 163 0;
#X connect 175 0 190 0;
#X connect 175 1 185 0;
#X connect 177 0 155 0;
#X connect 178 0 179 0;
#X connect 179 0 180 0;
#X connect 180 0 177 1;
#X connect 181 0 182 0;
#X connect 182 0 180 0;
#X connect 183 0 177 0;
#X connect 183 1 178 0;
#X connect 185 0 190 1;
#X connect 186 0 187 0;
#X connect 186 1 188 0;
#X connect 186 2 188 0;
#X connect 186 3 187 0;
#X connect 187 0 192 0;
#X connect 188 0 192 0;
#X connect 191 0 184 0;
#X connect 193 0 213 0;
#X connect 194 0 214 0;
#X connect 195 0 211 0;
#X connect 196 0 197 1;
#X connect 197 0 196 0;
#X connect 197 0 200 0;
#X connect 198 0 201 0;
#X connect 199 0 197 1;
#X connect 200 0 206 0;
#X connect 200 1 198 0;
#X connect 201 0 202 0;
#X connect 201 1 199 0;
#X connect 201 2 195 0;
#X connect 202 0 207 1;
#X connect 203 0 205 0;
#X connect 203 1 204 1;
#X connect 204 0 205 1;
#X connect 204 0 207 0;
#X connect 205 0 204 0;
#X connect 206 0 203 0;
#X connect 207 0 208 0;
#X connect 208 0 186 0;
#X connect 208 1 209 0;
#X connect 208 2 202 0;
#X connect 209 0 210 0;
#X connect 210 0 205 1;
#X connect 211 0 197 0;
#X connect 212 0 195 0;
#X connect 212 1 191 0;
#X connect 212 2 175 0;
#X connect 216 0 217 0;
#X connect 217 0 176 0;
#X connect 218 0 219 0;
#X connect 219 0 176 0;
#X connect 220 0 221 0;
#X connect 221 0 176 0;
