#N canvas -26 35 1979 1316 12;
#X floatatom 20 41 5 0 0 0 - - - 0;
#X obj 20 84 t b a;
#X obj 770 293 list store, f 21;
#X listbox 770 317 20 0 0 0 - - - 0;
#X obj 914 269 bng 19 250 50 0 empty empty empty 0 -10 0 12 #fcfcfc #000000 #000000;
#X obj 20 106 s steps;
#X obj 770 269 r steps;
#X obj 770 341 outlet;
#X obj 20 19 inlet;
#X floatatom 137 41 5 0 0 0 - - - 0;
#X obj 137 84 t b a;
#X obj 137 106 s steps;
#X obj 137 19 inlet;
#X floatatom 254 41 5 0 0 0 - - - 0;
#X obj 254 84 t b a;
#X obj 254 106 s steps;
#X obj 254 19 inlet;
#X floatatom 371 41 5 0 0 0 - - - 0;
#X obj 371 84 t b a;
#X obj 371 106 s steps;
#X obj 371 19 inlet;
#X floatatom 488 41 5 0 0 0 - - - 0;
#X obj 488 84 t b a;
#X obj 488 106 s steps;
#X obj 488 19 inlet;
#X floatatom 605 41 5 0 0 0 - - - 0;
#X obj 605 84 t b a;
#X obj 605 106 s steps;
#X obj 605 19 inlet;
#X floatatom 20 162 5 0 0 0 - - - 0;
#X obj 20 205 t b a;
#X obj 20 227 s steps;
#X obj 20 140 inlet;
#X floatatom 137 162 5 0 0 0 - - - 0;
#X obj 137 205 t b a;
#X obj 137 227 s steps;
#X obj 137 140 inlet;
#X floatatom 254 162 5 0 0 0 - - - 0;
#X obj 254 205 t b a;
#X obj 254 227 s steps;
#X obj 254 140 inlet;
#X floatatom 371 162 5 0 0 0 - - - 0;
#X obj 371 205 t b a;
#X obj 371 227 s steps;
#X obj 371 140 inlet;
#X floatatom 488 162 5 0 0 0 - - - 0;
#X obj 488 205 t b a;
#X obj 488 227 s steps;
#X obj 488 140 inlet;
#X floatatom 605 162 5 0 0 0 - - - 0;
#X obj 605 205 t b a;
#X obj 605 227 s steps;
#X obj 605 140 inlet;
#X floatatom 20 283 5 0 0 0 - - - 0;
#X obj 20 326 t b a;
#X obj 20 348 s steps;
#X obj 20 261 inlet;
#X floatatom 137 283 5 0 0 0 - - - 0;
#X obj 137 326 t b a;
#X obj 137 348 s steps;
#X obj 137 261 inlet;
#X floatatom 254 283 5 0 0 0 - - - 0;
#X obj 254 326 t b a;
#X obj 254 348 s steps;
#X obj 254 261 inlet;
#X floatatom 371 283 5 0 0 0 - - - 0;
#X obj 371 326 t b a;
#X obj 371 348 s steps;
#X obj 371 261 inlet;
#X floatatom 488 283 5 0 0 0 - - - 0;
#X obj 488 326 t b a;
#X obj 488 348 s steps;
#X obj 488 261 inlet;
#X floatatom 605 283 5 0 0 0 - - - 0;
#X obj 605 326 t b a;
#X obj 605 348 s steps;
#X obj 605 261 inlet;
#X floatatom 20 404 5 0 0 0 - - - 0;
#X obj 20 447 t b a;
#X obj 20 469 s steps;
#X obj 20 382 inlet;
#X floatatom 137 404 5 0 0 0 - - - 0;
#X obj 137 447 t b a;
#X obj 137 469 s steps;
#X obj 137 382 inlet;
#X floatatom 254 404 5 0 0 0 - - - 0;
#X obj 254 447 t b a;
#X obj 254 469 s steps;
#X obj 254 382 inlet;
#X floatatom 371 404 5 0 0 0 - - - 0;
#X obj 371 447 t b a;
#X obj 371 469 s steps;
#X obj 371 382 inlet;
#X floatatom 488 404 5 0 0 0 - - - 0;
#X obj 488 447 t b a;
#X obj 488 469 s steps;
#X obj 488 382 inlet;
#X floatatom 605 404 5 0 0 0 - - - 0;
#X obj 605 447 t b a;
#X obj 605 469 s steps;
#X obj 605 382 inlet;
#X floatatom 20 525 5 0 0 0 - - - 0;
#X obj 20 568 t b a;
#X obj 20 590 s steps;
#X obj 20 503 inlet;
#X floatatom 137 525 5 0 0 0 - - - 0;
#X obj 137 568 t b a;
#X obj 137 590 s steps;
#X obj 137 503 inlet;
#X obj 137 546 trill-it 5 0.5;
#X floatatom 254 525 5 0 0 0 - - - 0;
#X obj 254 568 t b a;
#X obj 254 590 s steps;
#X obj 254 503 inlet;
#X floatatom 371 525 5 0 0 0 - - - 0;
#X obj 371 568 t b a;
#X obj 371 590 s steps;
#X obj 371 503 inlet;
#X floatatom 488 525 5 0 0 0 - - - 0;
#X obj 488 568 t b a;
#X obj 488 590 s steps;
#X obj 488 503 inlet;
#X floatatom 605 525 5 0 0 0 - - - 0;
#X obj 605 568 t b a;
#X obj 605 590 s steps;
#X obj 605 503 inlet;
#X obj 20 546 trill-it 0 0.5;
#X obj 20 425 trill-it 1 0.5;
#X obj 20 304 trill-it 2 0.5;
#X obj 20 183 trill-it 3 0.5;
#X obj 20 62 trill-it 4 0.5;
#X obj 137 425 trill-it 6 0.5;
#X obj 137 304 trill-it 7 0.5;
#X obj 137 183 trill-it 8 0.5;
#X obj 137 62 trill-it 9 0.5;
#X obj 254 546 trill-it 10 0.5;
#X obj 254 425 trill-it 11 0.5;
#X obj 254 304 trill-it 12 0.5;
#X obj 254 183 trill-it 13 0.5;
#X obj 254 62 trill-it 14 0.5;
#X obj 371 546 trill-it 15 0.5;
#X obj 371 425 trill-it 16 0.5;
#X obj 371 304 trill-it 17 0.5;
#X obj 371 183 trill-it 18 0.5;
#X obj 371 62 trill-it 19 0.5;
#X obj 488 546 trill-it 20 0.5;
#X obj 605 546 trill-it 25 0.5;
#X obj 488 425 trill-it 21 0.5;
#X obj 605 425 trill-it 26 0.5;
#X obj 488 304 trill-it 22 0.5;
#X obj 488 183 trill-it 23 0.5;
#X obj 488 62 trill-it 24 0.5;
#X obj 605 304 trill-it 27 0.5;
#X obj 605 183 trill-it 28 0.5;
#X obj 605 62 trill-it 29 0.5;
#X obj 914 245 inlet;
#X connect 0 0 130 0;
#X connect 1 0 5 0;
#X connect 1 1 5 0;
#X connect 2 0 3 0;
#X connect 3 0 7 0;
#X connect 4 0 2 1;
#X connect 6 0 2 0;
#X connect 8 0 0 0;
#X connect 9 0 134 0;
#X connect 10 0 11 0;
#X connect 10 1 11 0;
#X connect 12 0 9 0;
#X connect 13 0 139 0;
#X connect 14 0 15 0;
#X connect 14 1 15 0;
#X connect 16 0 13 0;
#X connect 17 0 144 0;
#X connect 18 0 19 0;
#X connect 18 1 19 0;
#X connect 20 0 17 0;
#X connect 21 0 151 0;
#X connect 22 0 23 0;
#X connect 22 1 23 0;
#X connect 24 0 21 0;
#X connect 25 0 154 0;
#X connect 26 0 27 0;
#X connect 26 1 27 0;
#X connect 28 0 25 0;
#X connect 29 0 129 0;
#X connect 30 0 31 0;
#X connect 30 1 31 0;
#X connect 32 0 29 0;
#X connect 33 0 133 0;
#X connect 34 0 35 0;
#X connect 34 1 35 0;
#X connect 36 0 33 0;
#X connect 37 0 138 0;
#X connect 38 0 39 0;
#X connect 38 1 39 0;
#X connect 40 0 37 0;
#X connect 41 0 143 0;
#X connect 42 0 43 0;
#X connect 42 1 43 0;
#X connect 44 0 41 0;
#X connect 45 0 150 0;
#X connect 46 0 47 0;
#X connect 46 1 47 0;
#X connect 48 0 45 0;
#X connect 49 0 153 0;
#X connect 50 0 51 0;
#X connect 50 1 51 0;
#X connect 52 0 49 0;
#X connect 53 0 128 0;
#X connect 54 0 55 0;
#X connect 54 1 55 0;
#X connect 56 0 53 0;
#X connect 57 0 132 0;
#X connect 58 0 59 0;
#X connect 58 1 59 0;
#X connect 60 0 57 0;
#X connect 61 0 137 0;
#X connect 62 0 63 0;
#X connect 62 1 63 0;
#X connect 64 0 61 0;
#X connect 65 0 142 0;
#X connect 66 0 67 0;
#X connect 66 1 67 0;
#X connect 68 0 65 0;
#X connect 69 0 149 0;
#X connect 70 0 71 0;
#X connect 70 1 71 0;
#X connect 72 0 69 0;
#X connect 73 0 152 0;
#X connect 74 0 75 0;
#X connect 74 1 75 0;
#X connect 76 0 73 0;
#X connect 77 0 127 0;
#X connect 78 0 79 0;
#X connect 78 1 79 0;
#X connect 80 0 77 0;
#X connect 81 0 131 0;
#X connect 82 0 83 0;
#X connect 82 1 83 0;
#X connect 84 0 81 0;
#X connect 85 0 136 0;
#X connect 86 0 87 0;
#X connect 86 1 87 0;
#X connect 88 0 85 0;
#X connect 89 0 141 0;
#X connect 90 0 91 0;
#X connect 90 1 91 0;
#X connect 92 0 89 0;
#X connect 93 0 147 0;
#X connect 94 0 95 0;
#X connect 94 1 95 0;
#X connect 96 0 93 0;
#X connect 97 0 148 0;
#X connect 98 0 99 0;
#X connect 98 1 99 0;
#X connect 100 0 97 0;
#X connect 101 0 126 0;
#X connect 102 0 103 0;
#X connect 102 1 103 0;
#X connect 104 0 101 0;
#X connect 105 0 109 0;
#X connect 106 0 107 0;
#X connect 106 1 107 0;
#X connect 108 0 105 0;
#X connect 109 0 106 0;
#X connect 110 0 135 0;
#X connect 111 0 112 0;
#X connect 111 1 112 0;
#X connect 113 0 110 0;
#X connect 114 0 140 0;
#X connect 115 0 116 0;
#X connect 115 1 116 0;
#X connect 117 0 114 0;
#X connect 118 0 145 0;
#X connect 119 0 120 0;
#X connect 119 1 120 0;
#X connect 121 0 118 0;
#X connect 122 0 146 0;
#X connect 123 0 124 0;
#X connect 123 1 124 0;
#X connect 125 0 122 0;
#X connect 126 0 102 0;
#X connect 127 0 78 0;
#X connect 128 0 54 0;
#X connect 129 0 30 0;
#X connect 130 0 1 0;
#X connect 131 0 82 0;
#X connect 132 0 58 0;
#X connect 133 0 34 0;
#X connect 134 0 10 0;
#X connect 135 0 111 0;
#X connect 136 0 86 0;
#X connect 137 0 62 0;
#X connect 138 0 38 0;
#X connect 139 0 14 0;
#X connect 140 0 115 0;
#X connect 141 0 90 0;
#X connect 142 0 66 0;
#X connect 143 0 42 0;
#X connect 144 0 18 0;
#X connect 145 0 119 0;
#X connect 146 0 123 0;
#X connect 147 0 94 0;
#X connect 148 0 98 0;
#X connect 149 0 70 0;
#X connect 150 0 46 0;
#X connect 151 0 22 0;
#X connect 152 0 74 0;
#X connect 153 0 50 0;
#X connect 154 0 26 0;
#X connect 155 0 4 0;
