#N canvas 266 266 450 647 12;
#X obj 45 53 random \$1;
#X obj 45 29 inlet;
#X obj 45 77 t f f, f 9;
#X floatatom 93 101 5 0 0 0 - - - 0;
#X floatatom 45 101 5 0 0 0 - - - 0;
#X obj 93 124 f;
#X obj 93 148 t f f;
#X obj 45 124 ==;
#X obj 107 172 f;
#X obj 45 148 sel 0;
#X obj 45 172 bng 19 250 50 0 empty empty empty 0 -10 0 12 #fcfcfc #000000 #000000;
#X obj 107 196 outlet;
#X connect 0 0 2 0;
#X connect 1 0 0 0;
#X connect 2 0 3 0;
#X connect 2 1 4 0;
#X connect 3 0 5 0;
#X connect 4 0 7 0;
#X connect 5 0 6 0;
#X connect 6 0 7 1;
#X connect 6 1 8 1;
#X connect 7 0 9 0;
#X connect 8 0 11 0;
#X connect 9 0 10 0;
#X connect 10 0 8 0;
