#N canvas 267 89 1144 1090 12;
#X obj 18 18 loadbang;
#X obj 18 97 tgl 19 0 empty empty empty 0 -10 0 12 #fcfcfc #000000 #000000 0 1;
#X obj 18 128 metro 5;
#X obj 18 152 bng 19 250 50 0 empty empty empty 0 -10 0 12 #fcfcfc #000000 #000000;
#X obj 18 176 f;
#X obj 50 176 + 1;
#X obj 18 248 sel 1;
#X obj 18 200 t f f, f 8;
#X msg 18 272 0;
#X obj 171 296 t f f f, f 11;
#X obj 333 465 pack s f f, f 21;
#X obj 405 371 mod 6;
#X obj 477 441 f;
#X obj 477 347 / 6;
#X obj 477 370 int;
#X obj 477 417 + 5;
#X obj 171 513 soundfiler;
#X obj 171 465 pack s s;
#X msg 171 489 read -resize \$1 \$2;
#X msg 333 489 \; pd-tables obj \$2 \$3 table \$1;
#X obj 171 357 t f f, f 12;
#X obj 405 347 t f b, f 6;
#X obj 301 419 t s s;
#X obj 477 393 * 25;
#X obj 405 419 + 5;
#X obj 405 395 * 125;
#X obj 171 381 makefilename \$1/\$2-%d.wav, f 17;
#X obj 301 381 makefilename \$2-%d, f 12;
#X obj 18 224 == \$3;
#X obj 18 66 t b b, f 10;
#X msg 85 90 \; pd-tables clear;
#X obj 18 42 del 1000;
#X obj 18 296 t f f f, f 8;
#N canvas 304 304 1293 810 tables 0;
#X obj 5 5 table cane-0;
#X obj 130 5 table cane-1;
#X obj 255 5 table cane-2;
#X obj 380 5 table cane-3;
#X obj 505 5 table cane-4;
#X obj 630 5 table cane-5;
#X obj 5 30 table cane-6;
#X obj 130 30 table cane-7;
#X obj 255 30 table cane-8;
#X obj 380 30 table cane-9;
#X obj 505 30 table cane-10;
#X restore 374 18 pd tables;
#X obj 257 211 print;
#X connect 0 0 31 0;
#X connect 1 0 2 0;
#X connect 2 0 3 0;
#X connect 3 0 4 0;
#X connect 4 0 5 0;
#X connect 4 0 7 0;
#X connect 5 0 4 1;
#X connect 6 0 8 0;
#X connect 7 0 28 0;
#X connect 7 1 9 0;
#X connect 7 1 34 0;
#X connect 8 0 32 0;
#X connect 9 0 20 0;
#X connect 9 1 21 0;
#X connect 9 2 13 0;
#X connect 10 0 19 0;
#X connect 11 0 25 0;
#X connect 12 0 10 2;
#X connect 13 0 14 0;
#X connect 14 0 23 0;
#X connect 15 0 12 1;
#X connect 17 0 18 0;
#X connect 18 0 16 0;
#X connect 20 0 26 0;
#X connect 20 1 27 0;
#X connect 21 0 11 0;
#X connect 21 1 12 0;
#X connect 22 0 17 1;
#X connect 22 1 10 0;
#X connect 23 0 15 0;
#X connect 24 0 10 1;
#X connect 25 0 24 0;
#X connect 26 0 17 0;
#X connect 27 0 22 0;
#X connect 28 0 6 0;
#X connect 29 0 1 0;
#X connect 29 1 30 0;
#X connect 31 0 29 0;
#X connect 32 0 4 1;
#X connect 32 1 5 1;
#X connect 32 2 1 0;
