#N canvas 918 383 450 490 12;
#X obj 15 61 change;
#X obj 15 83 sel 0 1, f 17;
#X obj 15 15 inlet;
#X obj 15 154 f \$1;
#X obj 15 39 > \$2;
#X obj 15 187 pack f f;
#X obj 15 107 t b b;
#X obj 73 107 t b b;
#X msg 105 131 1;
#X msg 47 131 0;
#X obj 15 211 outlet;
#X connect 0 0 1 0;
#X connect 1 0 6 0;
#X connect 1 1 7 0;
#X connect 2 0 4 0;
#X connect 3 0 5 0;
#X connect 4 0 0 0;
#X connect 5 0 10 0;
#X connect 6 0 3 0;
#X connect 6 1 9 0;
#X connect 7 0 3 0;
#X connect 7 1 8 0;
#X connect 8 0 5 1;
#X connect 9 0 5 1;
