#N canvas 855 311 953 628 12;
#X floatatom 16 37 5 0 0 0 - - - 0;
#X obj 16 84 tgl 19 0 empty empty empty 0 -10 0 12 #fcfcfc #000000 #000000 0 1;
#X obj 16 108 sel 1;
#X obj 16 132 bng 19 250 50 0 empty empty empty 0 -10 0 12 #fcfcfc #000000 #000000;
#X obj 16 13 inlet;
#X obj 16 60 > \$2;
#X text 104 71 Trill index;
#X text 104 88 by threshold;
#X text 104 122 2024;
#X text 104 105 Manuel Vázquez;
#X obj 16 156 float \$1;
#X msg 16 180 append \$1;
#X obj 16 204 outlet;
#X connect 0 0 5 0;
#X connect 1 0 2 0;
#X connect 2 0 3 0;
#X connect 3 0 10 0;
#X connect 4 0 0 0;
#X connect 5 0 1 0;
#X connect 10 0 11 0;
#X connect 11 0 12 0;
